<svg id="Layer_1" data-name="Layer 1" xmlns="http://www.w3.org/2000/svg" viewBox="0 0 625.5 173.81"><path d="M44.31,149.38c4.33-4.38,8.82-8.6,12.94-13.17a33.69,33.69,0,0,0,8.85-21.66q.84-20.35,0-40.7c-.29-7.52-3.07-14.08-7.46-20a52.59,52.59,0,0,0-4.76-5.14Q42.51,36.84,31.13,25c-.78-.82-1.18-.73-1.91,0Q17.7,36.75,6.1,48.41c-.69.69-.74,1,0,1.76Q16.29,60.58,26.42,71.05c3.64,3.77,7,7.76,10.37,11.79s4.26,8.88,3.85,14.1c-.3,3.87-2.36,6.78-4.61,9.62-5.53,7-11.84,13.27-18.07,19.63-4,4-7.88,8.07-11.85,12.07-.81.81-.75,1.28,0,2.09q11.55,11.58,23,23.27c.69.7,1,.71,1.75,0,4.54-4.66,9.14-9.28,13.72-13.91Z" style="fill:#db2727"/><path d="M84.39,27.69A17.87,17.87,0,1,0,66.64,45.84,18,18,0,0,0,84.39,27.69Z" style="fill:#db2727"/><path d="M90.74,39.19c-4.33,4.37-8.83,8.6-12.95,13.16A33.73,33.73,0,0,0,69,74q-.86,20.34,0,40.69c.29,7.52,3.07,14.09,7.45,20a52.89,52.89,0,0,0,4.77,5.15c7.59,7.89,15.21,15.75,22.77,23.67.79.82,1.18.73,1.92,0q11.52-11.73,23.12-23.39c.68-.69.73-1,0-1.77Q118.77,128,108.63,117.51c-3.64-3.76-7-7.75-10.38-11.79S94,96.85,94.4,91.63c.31-3.88,2.36-6.78,4.61-9.63,5.54-7,11.85-13.27,18.08-19.62,3.94-4,7.87-8.08,11.85-12.08.81-.81.75-1.28-.05-2.08q-11.55-11.59-23-23.27c-.69-.71-1.06-.71-1.75,0C99.58,29.61,95,34.22,90.41,38.85Z" style="fill:#db2727"/><path d="M243.22,96.24a13.91,13.91,0,0,0-3.48-3.54c-1.49-1-3.12-2-5-3L210.83,78.32a3.13,3.13,0,0,1-2.15-3.09v-5a3.38,3.38,0,0,1,1.26-2.62,4.51,4.51,0,0,1,3-1.1h1.77a4.56,4.56,0,0,1,3,1.1A3.34,3.34,0,0,1,219,70.22v2.62h24.83v-.23c0-5.28-2.15-9.77-6.44-13.56a23.08,23.08,0,0,0-15.65-5.65H205.65a27.88,27.88,0,0,0-11.05,2.12,19.56,19.56,0,0,0-8,6,14.58,14.58,0,0,0-3,9.19v4.88c.29,4,3,7.26,8,9.76l25.86,12.33a3.23,3.23,0,0,1,1.19.77c.22.32.36,3.34.36,8.93a3.38,3.38,0,0,1-1.26,2.63,4.55,4.55,0,0,1-3,1.09h-1.77a4.5,4.5,0,0,1-3-1.09,3.41,3.41,0,0,1-1.26-2.63V98.23H183.12V105c0,5.26,2.14,9.77,6.51,13.56a23.07,23.07,0,0,0,15.64,5.64h17.12a25.3,25.3,0,0,0,11.11-2.37,20.85,20.85,0,0,0,8-6.56,15.55,15.55,0,0,0,3-9.43v-4.37A10,10,0,0,0,243.22,96.24Z" style="fill:#231f20"/><path d="M272.75,124.18a18.75,18.75,0,0,1-12.67-4.56,14.08,14.08,0,0,1-5.26-11v-7a11.52,11.52,0,0,1,2.52-7.45,19.93,19.93,0,0,1,6.52-5.33,40.67,40.67,0,0,1,8.89-3.34L290.61,81V70.23a3.37,3.37,0,0,0-1.18-2.64,4.6,4.6,0,0,0-3-1.09h-1.78a4.4,4.4,0,0,0-3,1.09,3.45,3.45,0,0,0-1.26,2.64v8H255.63V72.6c0-5.26,2.15-9.76,6.52-13.55a22.71,22.71,0,0,1,15.57-5.65h16.37a23,23,0,0,1,15.64,5.65c4.3,3.79,6.45,8.29,6.45,13.55v50.61H292.91l-1-6.23h-1.11a15.32,15.32,0,0,1-6.22,5.2,19.08,19.08,0,0,1-8.6,2Zm16.53-14.33a3.65,3.65,0,0,0,1.33-2.89V92.58a41,41,0,0,0-4.52,1.09,12.5,12.5,0,0,0-4,2.12,4.66,4.66,0,0,0-1.71,3.79v7a3.7,3.7,0,0,0,1.64,3.27,6,6,0,0,0,3.92,1.22A4.91,4.91,0,0,0,289.28,109.85Z" style="fill:#231f20"/><path d="M346,122.12a20.42,20.42,0,0,1-9.49-6.55c-2.44-3-3.63-7-3.63-12V66.5h-7.11V54.36a7.91,7.91,0,0,0,3.33-1,10.38,10.38,0,0,0,3.63-3.08,8.39,8.39,0,0,0,1.64-5.39v-13h24.08V44.6a9.35,9.35,0,0,1-1.78,5.71A8.29,8.29,0,0,1,352,53.4v1h22.68V66.5H358.46v39.44c0,3.14,1.93,4.68,5.78,4.68a26.82,26.82,0,0,0,9.41-2l1,.65v12.13a47.67,47.67,0,0,1-16.16,2.77A37.49,37.49,0,0,1,346,122.12Z" style="fill:#231f20"/><path d="M385,123.21V54.36H408.3l1.26,7.52h1.11a18.63,18.63,0,0,1,5.19-6.17q3-2.31,8.22-2.31h7V66.5h-16.3a4.5,4.5,0,0,0-3,1.09,3.41,3.41,0,0,0-1.26,2.64v53Z" style="fill:#231f20"/><path d="M462,28.87a13.19,13.19,0,0,0-22.52,9.33,13.19,13.19,0,1,0,26.37,0A12.71,12.71,0,0,0,462,28.87Zm-5.75,12.94a5.07,5.07,0,0,1-7.17-7.17,5.07,5.07,0,0,1,7.17,7.17Z" style="fill:#db2727"/><path d="M439.83,54.36v68.85H465.4V54.36ZM456.24,70.8a5.09,5.09,0,1,1,1.48-3.59A4.89,4.89,0,0,1,456.24,70.8Z" style="fill:#231f20"/><path d="M499.68,152.31A55,55,0,0,1,487.3,151a30.51,30.51,0,0,1-9-3.15V134.45l1.11-.58c1.18.71,3.92,1.55,8.15,2.57a51,51,0,0,0,12.75,1.61,23.73,23.73,0,0,0,5.85-.64,9,9,0,0,0,4.3-2.12,5.4,5.4,0,0,0,1.56-4.11v-14a16.57,16.57,0,0,1-6.3,5.08,19.33,19.33,0,0,1-8.45,1.93h-3.19a18.75,18.75,0,0,1-12.67-4.56,14,14,0,0,1-5.26-11V54.36h25.56v52.22a4,4,0,0,0,1.56,3.15,5,5,0,0,0,3.56,1.34A6.06,6.06,0,0,0,510.5,110a3.57,3.57,0,0,0,1.48-3l.08-52.6h25.49v73.73c0,5.91-1.34,10.6-4.08,14.13a23,23,0,0,1-11,7.71,46.91,46.91,0,0,1-15.41,2.38Z" style="fill:#231f20"/><path d="M565.82,124.18a18.75,18.75,0,0,1-12.67-4.56,14.08,14.08,0,0,1-5.26-11v-7a11.52,11.52,0,0,1,2.52-7.45,19.93,19.93,0,0,1,6.52-5.33,40.67,40.67,0,0,1,8.89-3.34L583.68,81V70.23a3.37,3.37,0,0,0-1.18-2.64,4.6,4.6,0,0,0-3-1.09h-1.78a4.35,4.35,0,0,0-3,1.09,3.41,3.41,0,0,0-1.26,2.64v8H548.7V72.6c0-5.26,2.15-9.76,6.53-13.55a22.66,22.66,0,0,1,15.56-5.65h16.38a23,23,0,0,1,15.63,5.65c4.3,3.79,6.45,8.29,6.45,13.55v50.61H586l-1-6.23h-1.11a15.32,15.32,0,0,1-6.22,5.2,19.08,19.08,0,0,1-8.6,2Zm16.53-14.33a3.65,3.65,0,0,0,1.33-2.89V92.58a41,41,0,0,0-4.52,1.09,12.5,12.5,0,0,0-4,2.12,4.65,4.65,0,0,0-1.7,3.79v7a3.7,3.7,0,0,0,1.63,3.27,6,6,0,0,0,3.92,1.22A4.89,4.89,0,0,0,582.35,109.85Z" style="fill:#231f20"/><text transform="translate(182.3 143.41) scale(0.92 1)" style="font-size:17.4489688873291px;fill:#db2727;font-family:Arial-Black, Arial;font-weight:800;letter-spacing:-0.0071707679465139295em">K<tspan x="14.41" y="0" style="letter-spacing:0.027004806947509907em">OPERASI DESA MERAH PUTIH</tspan></text></svg>